<svg width="49" height="48" viewBox="0 0 49 48" fill="none" xmlns="http://www.w3.org/2000/svg">
<circle cx="24.5" cy="24" r="24" fill="#00BE88"/>
<g clip-path="url(#clip0)">
<path d="M36.4792 14.833H13.5208C11.8558 14.833 10.5 16.1888 10.5 17.8539V31.1456C10.5 32.8106 11.8558 34.1664 13.5208 34.1664H36.4791C38.1442 34.1664 39.4999 32.8106 39.4999 31.1456V17.8539C39.5 16.1888 38.1442 14.833 36.4792 14.833ZM38.2917 31.1455C38.2917 32.1448 37.4785 32.958 36.4792 32.958H13.5208C12.5215 32.958 11.7083 32.1448 11.7083 31.1455V17.8539C11.7083 16.8546 12.5215 16.0414 13.5208 16.0414H36.4791C37.4784 16.0414 38.2916 16.8546 38.2916 17.8539V31.1455H38.2917Z" fill="white"/>
<path d="M38.8958 18.458H11.1042C10.7707 18.458 10.5 18.7287 10.5 19.0622V22.6872C10.5 23.0207 10.7707 23.2914 11.1042 23.2914H38.8959C39.2294 23.2914 39.5001 23.0207 39.5001 22.6872V19.0622C39.5 18.7287 39.2293 18.458 38.8958 18.458ZM38.2917 22.083H11.7083V19.6663H38.2916V22.083H38.2917Z" fill="white"/>
<path d="M21.9792 26.917H14.7292C14.3957 26.917 14.125 27.1877 14.125 27.5212C14.125 27.8547 14.3957 28.1253 14.7292 28.1253H21.9792C22.3127 28.1253 22.5834 27.8546 22.5834 27.5211C22.5834 27.1876 22.3127 26.917 21.9792 26.917Z" fill="white"/>
<path d="M21.9792 29.333H14.7292C14.3957 29.333 14.125 29.6037 14.125 29.9372C14.125 30.2707 14.3957 30.5414 14.7292 30.5414H21.9792C22.3127 30.5414 22.5834 30.2707 22.5834 29.9372C22.5833 29.6037 22.3127 29.333 21.9792 29.333Z" fill="white"/>
<path d="M34.0628 25.708H32.8545C31.8552 25.708 31.042 26.5212 31.042 27.5205V28.7288C31.042 29.7281 31.8552 30.5413 32.8545 30.5413H34.0628C35.0621 30.5413 35.8753 29.7281 35.8753 28.7288V27.5205C35.8753 26.5213 35.0621 25.708 34.0628 25.708ZM34.667 28.7289C34.667 29.0624 34.3963 29.3331 34.0628 29.3331H32.8545C32.521 29.3331 32.2503 29.0624 32.2503 28.7289V27.5206C32.2503 27.1871 32.521 26.9164 32.8545 26.9164H34.0628C34.3963 26.9164 34.667 27.1871 34.667 27.5206V28.7289Z" fill="white"/>
</g>
<defs>
<clipPath id="clip0">
<rect x="10.5" y="10" width="29" height="29" fill="white"/>
</clipPath>
</defs>
</svg>
