<svg width="49" height="48" viewBox="0 0 49 48" fill="none" xmlns="http://www.w3.org/2000/svg">
<circle cx="24.5" cy="24" r="24" fill="#EFF0F2"/>
<g clip-path="url(#clip0)">
<path d="M22.2036 20.2947C21.8943 20.1647 21.5427 20.3222 21.4182 20.6422L19.1526 26.4997H18.958V20.8747C18.958 20.5297 18.6873 20.2497 18.3538 20.2497H15.9372C15.6037 20.2497 15.333 20.5297 15.333 20.8747C15.333 21.2197 15.6037 21.4997 15.9372 21.4997H17.7497V27.1247C17.7497 27.4697 18.0204 27.7497 18.3539 27.7497H19.5622C19.8087 27.7497 20.0323 27.5934 20.1229 27.3572L22.5396 21.1071C22.664 20.7872 22.5141 20.4234 22.2036 20.2947Z" fill="#8B8B8B"/>
<path d="M24.5126 20.2623C24.2009 20.1948 23.8686 20.4123 23.8021 20.7523L22.5938 27.0023C22.5285 27.341 22.7412 27.6698 23.0687 27.7373C23.1085 27.746 23.1484 27.7498 23.1883 27.7498C23.4699 27.7498 23.7212 27.5448 23.7792 27.2473L24.9875 20.9973C25.0527 20.6585 24.8401 20.3298 24.5126 20.2623Z" fill="#8B8B8B"/>
<path d="M29.3784 20.3838C29.2805 20.3563 26.9557 19.7662 26.0591 21.2713C25.7739 21.7475 25.6869 22.2288 25.7981 22.7C26.0095 23.6 26.911 24.155 27.3435 24.4225C28.0395 24.85 28.4081 25.2825 28.3307 25.5763C28.2897 25.7275 28.1543 26.1025 27.7568 26.3213C27.3037 26.5713 26.6258 26.5488 25.7981 26.2588C25.4815 26.1513 25.1395 26.3225 25.0308 26.65C24.9245 26.9775 25.0936 27.3325 25.409 27.4438C25.9842 27.6463 26.5158 27.7475 26.9967 27.7475C27.4922 27.7475 27.9356 27.6413 28.3259 27.425C28.8987 27.11 29.3252 26.5563 29.498 25.9051C29.6636 25.2725 29.5331 24.3151 27.9622 23.3488C27.6951 23.1838 27.0644 22.795 26.9726 22.4038C26.9617 22.3538 26.9254 22.2013 27.0886 21.9288C27.4438 21.3288 28.6775 21.4912 29.0823 21.595C29.4097 21.6813 29.7336 21.4762 29.8146 21.1413C29.8968 20.8075 29.7022 20.4687 29.3784 20.3838Z" fill="#8B8B8B"/>
<path d="M34.0625 20.25H32.8542C32.6077 20.25 32.3841 20.4063 32.2935 20.6425L29.8768 26.8925C29.7523 27.2125 29.9022 27.5763 30.2127 27.7051C30.2864 27.7363 30.3625 27.7501 30.4375 27.7501C30.6767 27.7501 30.9039 27.6013 30.9982 27.3575L33.2638 21.5H33.4583V27.125C33.4583 27.47 33.729 27.7501 34.0625 27.7501C34.396 27.7501 34.6667 27.47 34.6667 27.125V20.875C34.6667 20.53 34.396 20.25 34.0625 20.25Z" fill="#8B8B8B"/>
<path d="M34.0629 24H31.6462C31.3127 24 31.042 24.28 31.042 24.625C31.042 24.97 31.3127 25.25 31.6462 25.25H34.0629C34.3964 25.25 34.6671 24.97 34.6671 24.625C34.6671 24.28 34.3964 24 34.0629 24Z" fill="#8B8B8B"/>
<path d="M35.2708 14H14.7292C12.3971 14 10.5 15.9625 10.5 18.375V29.625C10.5 32.0375 12.3971 34 14.7292 34H35.2709C37.6029 34 39.5 32.0375 39.5 29.625V18.375C39.5 15.9625 37.6029 14 35.2708 14ZM38.2917 29.625C38.2917 31.3475 36.9371 32.75 35.2709 32.75H14.7292C13.0629 32.75 11.7084 31.3475 11.7084 29.625V18.375C11.7084 16.6525 13.0629 15.25 14.7292 15.25H35.2709C36.9372 15.25 38.2917 16.6525 38.2917 18.375V29.625Z" fill="#8B8B8B"/>
</g>
<defs>
<clipPath id="clip0">
<rect x="10.5" y="9" width="29" height="30" fill="white"/>
</clipPath>
</defs>
</svg>
